<?xml version="1.0" encoding="UTF-8" standalone="no"?>
<!-- Created with Inkscape (http://www.inkscape.org/) -->

<svg
   xmlns:dc="http://purl.org/dc/elements/1.1/"
   xmlns:cc="http://creativecommons.org/ns#"
   xmlns:rdf="http://www.w3.org/1999/02/22-rdf-syntax-ns#"
   xmlns:svg="http://www.w3.org/2000/svg"
   xmlns="http://www.w3.org/2000/svg"
   xmlns:sodipodi="http://sodipodi.sourceforge.net/DTD/sodipodi-0.dtd"
   xmlns:inkscape="http://www.inkscape.org/namespaces/inkscape"
   id="svg4136"
   version="1.1"
   inkscape:version="0.91 r13725"
   xml:space="preserve"
   width="1052.3625"
   height="1488.1875"
   viewBox="0 0 1052.3625 1488.1875"
   sodipodi:docname="moebyusLogoVect.svg"><metadata
     id="metadata4142"><rdf:RDF><cc:Work
         rdf:about=""><dc:format>image/svg+xml</dc:format><dc:type
           rdf:resource="http://purl.org/dc/dcmitype/StillImage" /><dc:title /></cc:Work></rdf:RDF></metadata><defs
     id="defs4140"><clipPath
       clipPathUnits="userSpaceOnUse"
       id="clipPath4150"><path
         d="m 0,1190.55 841.89,0 L 841.89,0 0,0 0,1190.55 Z"
         id="path4152"
         inkscape:connector-curvature="0" /></clipPath></defs><sodipodi:namedview
     pagecolor="#ffffff"
     bordercolor="#666666"
     borderopacity="1"
     objecttolerance="10"
     gridtolerance="10"
     guidetolerance="10"
     inkscape:pageopacity="0"
     inkscape:pageshadow="2"
     inkscape:window-width="1920"
     inkscape:window-height="1057"
     id="namedview4138"
     showgrid="false"
     inkscape:zoom="0.84576041"
     inkscape:cx="700.54831"
     inkscape:cy="987.46399"
     inkscape:window-x="-8"
     inkscape:window-y="-8"
     inkscape:window-maximized="1"
     inkscape:current-layer="g4144" /><g
     id="g4144"
     inkscape:groupmode="layer"
     inkscape:label="moebyusLogoVect"
     transform="matrix(1.25,0,0,-1.25,0,1488.1875)"><g
       id="g4146"><g
         id="g4148"
         clip-path="url(#clipPath4150)"><g
           id="g4154"
           transform="translate(192.3054,933.554)"><path
             d="m -25.405,-1.48 c -15.523,-1.444 -30.695,-4.513 -44.531,-12.119 -10.767,-5.919 -19.095,-14.532 -19.467,-27.177 -0.307,-10.45 1.089,-21.266 3.687,-31.419 5.205,-20.349 15.664,-38.479 26.898,-56.069 9.477,-14.838 20.992,-27.866 34.964,-38.736 10.192,-7.93 22.195,-11.477 33.607,-6.992 10.025,3.94 19.517,11.254 26.981,19.203 10.171,10.833 18.977,23.187 26.954,35.784 12.626,19.936 22.512,41.209 25.328,65.105 1.396,11.852 0.357,23.268 -8.203,32.308 -7.137,7.537 -16.756,11.431 -26.507,14.388 C 36.638,-1.847 19.081045,0.041 0.31352265,0 -8.47,-0.475 -16.964,-0.694 -25.405,-1.48 Z m 20.263,-181.049 c -34.835,-9.359 -66.626,-3.832 -92.391,22.019 -27.49,27.581 -34.164,60.721 -20.365,97.527 5.197,13.861 13.751,25.354 24.58,35.338 1.795,1.655 3.269,4.241 3.766,6.63 7.728,37.169 37.265,65.914 74.62,72.372 45.229,7.819 90.512,-21.314 102.157,-66.04 1.723,-6.62 4.303,-11.777 9.385,-16.822 14.652,-14.544 24.023,-32.284 26.568,-53.064 2.938,-23.978 -2.106,-46.181 -16.877,-65.488 C 64.445,-202.337 14.465114,-184.0248 5.0420568,-182.5219 1.653,-181.978 -1.992,-181.682 -5.142,-182.529 Z"
             style="fill:#2b2b2a;fill-opacity:1;fill-rule:nonzero;stroke:none"
             id="path4156"
             inkscape:connector-curvature="0"
             sodipodi:nodetypes="csccccscccsccccscccscccccc" /></g><g
           id="g4158"
           transform="translate(420.4941,880.2082)"><path
             d="m 0,0 -9.006,0 0,58.355 -18.83,-39.707 -5.367,0 -18.693,39.707 0,-58.355 -8.415,0 0,67.725 12.28,0 18.056,-37.706 17.467,37.706 L 0,67.725 0,0 Z"
             style="fill:#2b2b2a;fill-opacity:1;fill-rule:nonzero;stroke:none"
             id="path4160"
             inkscape:connector-curvature="0" /></g><g
           id="g4162"
           transform="translate(472.4814,905.5876)"><path
             d="m -3.866,14.668 c -2.577,3.199 -6.155,4.799 -10.734,4.799 -4.639,0 -8.241,-1.6 -10.802,-4.799 C -27.965,11.469 -29.246,6.58 -29.246,0 c 0,-6.367 1.289,-11.196 3.866,-14.486 2.577,-3.29 6.17,-4.935 10.78,-4.935 4.548,0 8.119,1.629 10.711,4.889 C -1.296,-11.272 0,-6.429 0,0 0,6.58 -1.289,11.469 -3.866,14.668 Z m 6.322,-34.271 c -4.245,-4.792 -9.931,-7.187 -17.056,-7.187 -7.186,0 -12.894,2.395 -17.125,7.187 -4.229,4.79 -6.344,11.325 -6.344,19.603 0,8.278 2.115,14.82 6.344,19.626 4.231,4.806 9.939,7.209 17.125,7.209 7.125,0 12.811,-2.403 17.056,-7.209 C 6.701,14.82 8.824,8.278 8.824,0 c 0,-8.278 -2.123,-14.813 -6.368,-19.603 z"
             style="fill:#2b2b2a;fill-opacity:1;fill-rule:nonzero;stroke:none"
             id="path4164"
             inkscape:connector-curvature="0"
             sodipodi:nodetypes="sscsssccscscscsscc" /></g><g
           id="g4166"
           transform="translate(528.7441,911.2731)"><path
             d="m 0,0 c -0.031,4.487 -1.16,7.959 -3.389,10.416 -2.228,2.456 -5.617,3.684 -10.166,3.684 -4.578,0 -8.224,-1.35 -10.938,-4.048 C -27.207,7.353 -28.746,4.002 -29.109,0 L 0,0 Z m 8.323,-6.549 -37.432,0 c 0,-3.124 0.469,-5.845 1.41,-8.165 0.939,-2.319 2.228,-4.223 3.865,-5.708 1.577,-1.455 3.449,-2.547 5.617,-3.275 2.168,-0.727 4.556,-1.091 7.164,-1.091 3.457,0 6.937,0.689 10.439,2.069 3.502,1.38 5.996,2.736 7.481,4.071 l 0.455,0 0,-9.324 c -2.881,-1.213 -5.821,-2.229 -8.823,-3.048 -3.002,-0.818 -6.156,-1.228 -9.461,-1.228 -8.43,0 -15.01,2.282 -19.739,6.846 -4.731,4.563 -7.096,11.044 -7.096,19.444 0,8.308 2.267,14.903 6.8,19.785 4.532,4.881 10.499,7.323 17.897,7.323 6.853,0 12.137,-2.002 15.851,-6.004 C 6.466,11.144 8.323,5.458 8.323,-1.91 l 0,-4.639 z"
             style="fill:#2b2b2a;fill-opacity:1;fill-rule:nonzero;stroke:none"
             id="path4168"
             inkscape:connector-curvature="0" /></g><g
           id="g4170"
           transform="translate(585.916,905.7697)"><path
             d="m 0,0 c 0,6.064 -1.001,10.666 -3.002,13.804 -2.001,3.138 -5.23,4.708 -9.688,4.708 -2.487,0 -5.003,-0.539 -7.55,-1.615 -2.547,-1.077 -4.912,-2.464 -7.096,-4.162 l 0,-29.109 c 2.426,-1.091 4.511,-1.85 6.254,-2.274 1.744,-0.425 3.723,-0.637 5.936,-0.637 4.73,0 8.437,1.554 11.121,4.662 C -1.342,-11.515 0,-6.641 0,0 m 7.027,-11.234 c -1.198,-3.397 -2.813,-6.247 -4.844,-8.551 -2.154,-2.396 -4.518,-4.193 -7.095,-5.39 -2.578,-1.198 -5.413,-1.797 -8.506,-1.797 -2.881,0 -5.397,0.342 -7.55,1.024 -2.153,0.682 -4.275,1.599 -6.368,2.752 l -0.545,-2.366 -8.006,0 0,70.772 8.551,0 0,-25.288 c 2.396,1.971 4.942,3.585 7.642,4.844 2.698,1.257 5.73,1.887 9.096,1.887 6.004,0 10.742,-2.304 14.214,-6.913 3.472,-4.61 5.207,-11.114 5.207,-19.512 0,-4.246 -0.598,-8.067 -1.796,-11.462 z"
             style="fill:#2b2b2a;fill-opacity:1;fill-rule:nonzero;stroke:none"
             id="path4172"
             inkscape:connector-curvature="0"
             sodipodi:nodetypes="cssccccscccccsscccccccsccc" /></g><g
           id="g4174"
           transform="translate(651.7764,931.0129)"><path
             d="m 0,0 -29.655,-69.544 -9.143,0 9.461,21.195 L -49.577,0 -40.299,0 -24.698,-37.66 -8.961,0 0,0 Z"
             style="fill:#2b2b2a;fill-opacity:1;fill-rule:nonzero;stroke:none"
             id="path4176"
             inkscape:connector-curvature="0" /></g><g
           id="g4178"
           transform="translate(705.083,880.2082)"><path
             d="m 0,0 -8.551,0 0,5.64 c -2.882,-2.274 -5.64,-4.018 -8.278,-5.231 -2.638,-1.212 -5.549,-1.819 -8.733,-1.819 -5.337,0 -9.491,1.63 -12.462,4.889 -2.972,3.26 -4.457,8.043 -4.457,14.351 l 0,32.975 8.55,0 0,-28.928 c 0,-2.577 0.121,-4.783 0.364,-6.617 0.243,-1.835 0.757,-3.405 1.546,-4.708 0.819,-1.335 1.88,-2.304 3.184,-2.911 1.304,-0.607 3.199,-0.91 5.686,-0.91 2.213,0 4.631,0.576 7.255,1.729 2.622,1.152 5.071,2.622 7.345,4.412 l 0,37.933 8.551,0 L 0,0 Z"
             style="fill:#2b2b2a;fill-opacity:1;fill-rule:nonzero;stroke:none"
             id="path4180"
             inkscape:connector-curvature="0" /></g><g
           id="g4182"
           transform="translate(758.207,894.8537)"><path
             d="m -5.754,-11.416 c -3.836,-2.972 -9.073,-4.458 -15.714,-4.458 -3.761,0 -7.209,0.448 -10.347,1.342 -3.139,0.894 -5.77,1.872 -7.892,2.934 l 0,9.597 0.455,0 c 2.698,-2.032 5.7,-3.646 9.006,-4.844 3.305,-1.198 6.474,-1.797 9.506,-1.797 3.76,0 6.701,0.606 8.823,1.82 2.122,1.212 3.185,3.122 3.185,5.731 0,2.001 -0.578,3.517 -1.729,4.548 -1.153,1.03 -3.366,1.91 -6.641,2.638 -1.212,0.273 -2.796,0.591 -4.752,0.955 -1.957,0.364 -3.738,0.758 -5.345,1.182 -4.457,1.183 -7.618,2.918 -9.484,5.208 -1.864,2.289 -2.796,5.102 -2.796,8.437 0,2.093 0.432,4.063 1.295,5.914 0.865,1.849 2.176,3.501 3.935,4.957 1.698,1.425 3.858,2.554 6.481,3.389 2.622,0.833 5.557,1.25 8.801,1.25 3.032,0 6.103,-0.371 9.211,-1.114 3.108,-0.743 5.693,-1.645 7.755,-2.706 l 0,-9.142 -0.455,0 c -2.184,1.606 -4.837,2.963 -7.96,4.07 -3.123,1.107 -6.186,1.66 -9.188,1.66 -3.123,0 -5.76,-0.599 -7.914,-1.796 -2.153,-1.198 -3.229,-2.979 -3.229,-5.344 0,-2.093 0.652,-3.67 1.956,-4.731 1.273,-1.061 3.335,-1.926 6.186,-2.592 1.576,-0.364 3.343,-0.728 5.298,-1.092 1.956,-0.364 3.586,-0.698 4.89,-1 3.972,-0.91 7.034,-2.472 9.188,-4.685 C -1.076,6.67 0,3.699 0,0 0,-4.639 -1.918,-8.445 -5.754,-11.416 Z"
             style="fill:#2b2b2a;fill-opacity:1;fill-rule:nonzero;stroke:none"
             id="path4184"
             inkscape:connector-curvature="0"
             sodipodi:nodetypes="cscccccscscccccscccsscccsscsccccccc" /></g><g
           id="g4186"
           transform="translate(420.4941,768.4284)"><path
             d="m 0,0 -9.006,0 0,58.355 -18.83,-39.707 -5.367,0 -18.693,39.707 0,-58.355 -8.415,0 0,67.725 12.28,0 18.056,-37.706 17.467,37.706 L 0,67.725 0,0 Z"
             style="fill:#2b2b2a;fill-opacity:1;fill-rule:nonzero;stroke:none"
             id="path4188"
             inkscape:connector-curvature="0" /></g><g
           id="g4190"
           transform="translate(468.9795,780.9362)"><path
             d="m 0,14.146 c -2.608,-0.153 -5.679,-0.38 -9.211,-0.683 -3.532,-0.303 -6.33,-0.743 -8.392,-1.319 -2.456,-0.698 -4.442,-1.782 -5.958,-3.252 -1.516,-1.471 -2.274,-3.495 -2.274,-6.072 0,-2.911 0.879,-5.102 2.639,-6.572 1.758,-1.472 4.441,-2.206 8.05,-2.206 3.001,0 5.746,0.583 8.232,1.751 C -4.428,-3.04 -2.123,-1.637 0,0 Z m 8.505,-26.654 -8.505,0 0,5.413 c -0.759,-0.516 -1.782,-1.236 -3.07,-2.161 -1.289,-0.925 -2.54,-1.66 -3.752,-2.206 -1.426,-0.698 -3.064,-1.28 -4.913,-1.751 -1.85,-0.47 -4.018,-0.705 -6.504,-0.705 -4.578,0 -8.46,1.516 -11.644,4.548 -3.183,3.032 -4.775,6.898 -4.775,11.599 0,3.85 0.825,6.966 2.478,9.347 1.653,2.38 4.01,4.252 7.073,5.617 3.093,1.364 6.807,2.289 11.143,2.774 4.336,0.485 8.99,0.849 13.964,1.092 l 0,1.319 c 0,1.94 -0.342,3.547 -1.023,4.821 -0.683,1.274 -1.661,2.274 -2.934,3.002 -1.213,0.697 -2.669,1.167 -4.366,1.41 -1.699,0.242 -3.473,0.364 -5.323,0.364 -2.244,0 -4.745,-0.296 -7.504,-0.887 -2.759,-0.591 -5.61,-1.448 -8.551,-2.57 l -0.454,0 0,8.688 c 1.667,0.454 4.077,0.955 7.231,1.5 3.153,0.546 6.261,0.819 9.324,0.819 3.578,0 6.694,-0.296 9.347,-0.887 2.653,-0.591 4.95,-1.599 6.891,-3.025 1.91,-1.395 3.366,-3.199 4.366,-5.412 1.001,-2.214 1.501,-4.958 1.501,-8.233 z"
             style="fill:#2b2b2a;fill-opacity:1;fill-rule:nonzero;stroke:none"
             id="path4192"
             inkscape:connector-curvature="0"
             sodipodi:nodetypes="csccscscccccccccscsccscscccssccccssccsc" /></g><g
           id="g4194"
           transform="translate(531.5186,771.612)"><path
             d="m 0,0 c -2.851,-1.364 -5.557,-2.426 -8.118,-3.184 -2.564,-0.757 -5.284,-1.137 -8.165,-1.137 -3.669,0 -7.034,0.539 -10.097,1.615 -3.063,1.076 -5.685,2.706 -7.869,4.89 -2.214,2.183 -3.927,4.941 -5.14,8.277 -1.213,3.335 -1.819,7.232 -1.819,11.689 0,8.308 2.281,14.828 6.846,19.558 4.563,4.73 10.59,7.096 18.079,7.096 2.911,0 5.768,-0.409 8.574,-1.228 2.804,-0.819 5.374,-1.82 7.709,-3.002 l 0,-9.506 -0.455,0 c -2.608,2.031 -5.299,3.593 -8.073,4.684 -2.775,1.092 -5.481,1.638 -8.118,1.638 -4.852,0 -8.681,-1.63 -11.485,-4.89 -2.806,-3.259 -4.208,-8.043 -4.208,-14.35 0,-6.125 1.372,-10.832 4.116,-14.122 2.744,-3.29 6.603,-4.935 11.577,-4.935 1.728,0 3.486,0.227 5.275,0.682 1.789,0.455 3.396,1.046 4.821,1.774 1.243,0.637 2.411,1.311 3.503,2.024 1.091,0.712 1.955,1.326 2.592,1.842 L 0,9.415 0,0 Z"
             style="fill:#2b2b2a;fill-opacity:1;fill-rule:nonzero;stroke:none"
             id="path4196"
             inkscape:connector-curvature="0" /></g><g
           id="g4198"
           transform="translate(584.9609,768.4284)"><path
             d="m 0,0 -8.551,0 0,28.927 c 0,2.335 -0.137,4.526 -0.409,6.573 -0.272,2.046 -0.773,3.646 -1.501,4.798 -0.758,1.274 -1.85,2.221 -3.274,2.843 -1.426,0.621 -3.276,0.932 -5.55,0.932 -2.335,0 -4.776,-0.576 -7.322,-1.728 -2.547,-1.153 -4.989,-2.623 -7.324,-4.412 l 0,-37.933 -8.55,0 0,70.772 8.55,0 0,-25.607 c 2.668,2.213 5.428,3.941 8.279,5.185 2.849,1.243 5.776,1.865 8.778,1.865 5.488,0 9.672,-1.653 12.554,-4.958 C -1.44,43.952 0,39.191 0,32.975 L 0,0 Z"
             style="fill:#2b2b2a;fill-opacity:1;fill-rule:nonzero;stroke:none"
             id="path4200"
             inkscape:connector-curvature="0" /></g><path
           d="m 610.068,768.428 -8.552,0 0,50.805 8.552,0 0,-50.805 z m 0.545,59.31 -9.642,0 0,8.869 9.642,0 0,-8.869 z"
           style="fill:#2b2b2a;fill-opacity:1;fill-rule:nonzero;stroke:none"
           id="path4202"
           inkscape:connector-curvature="0" /><g
           id="g4204"
           transform="translate(669.4687,768.4284)"><path
             d="m 0,0 -8.551,0 0,28.927 c 0,2.335 -0.137,4.526 -0.409,6.573 -0.272,2.046 -0.773,3.646 -1.501,4.798 -0.758,1.274 -1.85,2.221 -3.274,2.843 -1.426,0.621 -3.276,0.932 -5.55,0.932 -2.335,0 -4.776,-0.576 -7.322,-1.728 -2.547,-1.153 -4.989,-2.623 -7.324,-4.412 l 0,-37.933 -8.55,0 0,50.805 8.55,0 0,-5.64 c 2.668,2.213 5.428,3.941 8.279,5.185 2.849,1.243 5.776,1.865 8.778,1.865 5.488,0 9.672,-1.653 12.554,-4.958 C -1.44,43.952 0,39.191 0,32.975 L 0,0 Z"
             style="fill:#2b2b2a;fill-opacity:1;fill-rule:nonzero;stroke:none"
             id="path4206"
             inkscape:connector-curvature="0" /></g><g
           id="g4208"
           transform="translate(720.1377,799.4933)"><path
             d="m 0,0 c -0.031,4.487 -1.16,7.959 -3.389,10.416 -2.228,2.456 -5.617,3.684 -10.166,3.684 -4.578,0 -8.224,-1.35 -10.938,-4.048 C -27.207,7.353 -28.746,4.002 -29.109,0 L 0,0 Z m 8.323,-6.549 -37.432,0 c 0,-3.124 0.469,-5.845 1.41,-8.165 0.939,-2.319 2.228,-4.223 3.865,-5.708 1.577,-1.455 3.449,-2.547 5.617,-3.275 2.168,-0.727 4.556,-1.091 7.164,-1.091 3.457,0 6.937,0.689 10.439,2.069 3.502,1.38 5.996,2.736 7.481,4.071 l 0.455,0 0,-9.324 c -2.881,-1.213 -5.821,-2.229 -8.823,-3.048 -3.002,-0.818 -6.156,-1.228 -9.461,-1.228 -8.43,0 -15.01,2.282 -19.739,6.846 -4.731,4.563 -7.096,11.044 -7.096,19.444 0,8.308 2.267,14.903 6.8,19.785 4.532,4.881 10.499,7.323 17.897,7.323 6.853,0 12.137,-2.002 15.851,-6.004 C 6.466,11.144 8.323,5.458 8.323,-1.91 l 0,-4.639 z"
             style="fill:#2b2b2a;fill-opacity:1;fill-rule:nonzero;stroke:none"
             id="path4210"
             inkscape:connector-curvature="0" /></g><g
           id="g4212"
           transform="translate(777.7187,783.0739)"><path
             d="m -5.754,-11.416 c -3.836,-2.972 -9.073,-4.458 -15.714,-4.458 -3.761,0 -7.209,0.448 -10.347,1.342 -3.139,0.894 -5.77,1.872 -7.892,2.934 l 0,9.597 0.455,0 c 2.698,-2.032 5.7,-3.646 9.006,-4.844 3.305,-1.198 6.474,-1.797 9.506,-1.797 3.76,0 6.701,0.606 8.823,1.82 2.122,1.212 3.185,3.122 3.185,5.731 0,2.001 -0.578,3.517 -1.729,4.548 -1.153,1.03 -3.366,1.91 -6.641,2.638 -1.212,0.273 -2.796,0.591 -4.752,0.955 -1.957,0.364 -3.738,0.758 -5.345,1.182 -4.457,1.183 -7.618,2.918 -9.484,5.208 -1.864,2.289 -2.796,5.102 -2.796,8.437 0,2.093 0.432,4.063 1.295,5.914 0.865,1.849 2.176,3.501 3.935,4.957 1.698,1.425 3.858,2.554 6.481,3.389 2.622,0.833 5.557,1.25 8.801,1.25 3.032,0 6.103,-0.371 9.211,-1.114 3.108,-0.743 5.693,-1.645 7.755,-2.706 l 0,-9.142 -0.455,0 c -2.184,1.606 -4.837,2.963 -7.96,4.07 -3.123,1.107 -6.186,1.66 -9.188,1.66 -3.123,0 -5.76,-0.599 -7.914,-1.796 -2.153,-1.198 -3.229,-2.979 -3.229,-5.344 0,-2.093 0.652,-3.67 1.956,-4.731 1.273,-1.061 3.335,-1.926 6.186,-2.592 1.576,-0.364 3.343,-0.728 5.298,-1.092 1.956,-0.364 3.586,-0.698 4.89,-1 3.972,-0.91 7.034,-2.472 9.188,-4.685 C -1.076,6.67 0,3.699 0,0 0,-4.639 -1.918,-8.445 -5.754,-11.416 Z"
             style="fill:#2b2b2a;fill-opacity:1;fill-rule:nonzero;stroke:none"
             id="path4214"
             inkscape:connector-curvature="0"
             sodipodi:nodetypes="cscccccscscccccscccsscccsscsccccccc" /></g></g></g></g></svg>